<svg version="1.1" xmlns="http://www.w3.org/2000/svg" xmlns:xlink="http://www.w3.org/1999/xlink" viewBox="0 0 226 226"><g transform=""><g fill="none" fill-rule="nonzero" stroke="none" stroke-width="1" stroke-linecap="butt" stroke-linejoin="miter" stroke-miterlimit="10" stroke-dasharray="" stroke-dashoffset="0" font-family="none" font-weight="none" font-size="none" text-anchor="none" style="mix-blend-mode: normal"><path d="M0,226v-226h226v226z" fill="#333333"></path><g><path d="M157.8158,198.88c-12.24016,0 -14.00748,-6.96984 -14.00748,-6.96984l-25.28262,-78.91016c0,0 -26.99344,58.99504 -35.24018,78.91016c-1.58426,3.82618 -5.65226,6.96984 -15.58044,6.96984c-11.82206,0 -13.46508,-4.5991 -13.46508,-7.13256c0,-1.54358 0.89948,-3.05326 1.33114,-4.01828c12.45034,-27.84772 50.64886,-110.19308 50.64886,-110.19308l-7.30432,-19.46086c-4.05218,-10.74404 -9.93044,-15.13522 -17.64156,-15.13522c-2.95834,0 -2.60126,0 -6.17658,0c-4.00246,0 -9.55754,-2.81144 -9.55754,-10.52934c0,-7.7179 2.83856,-10.36888 4.9268,-11.8424c2.4069,-1.695 5.46694,-2.48826 14.31032,-2.48826c9.89202,0 17.89694,2.7459 24.01024,8.2377c6.1133,5.4918 11.89664,15.96012 17.35002,31.40044c0,0 32.90334,95.24544 45.24972,131.10034c0.81812,2.37752 1.6611,10.06152 -13.5713,10.06152z" fill="#9b59b6"></path><path d="M157.8158,201.14c-13.84024,0 -16.10928,-8.32132 -16.19968,-8.67388l-23.46106,-73.2127c-6.82068,14.95894 -26.09848,57.3814 -32.7813,73.52232c-2.29842,5.55056 -8.24222,8.36426 -17.66868,8.36426c-14.1928,0 -15.72508,-6.56982 -15.72508,-9.39256c0,-1.78088 0.77292,-3.37192 1.28142,-4.42508l0.24408,-0.51528c11.63448,-26.01712 46.15598,-100.49994 50.26466,-109.3614l-6.97436,-18.57494c-4.61492,-12.25372 -11.06722,-13.67074 -15.52168,-13.67074h-6.17432c-5.87374,0 -11.8198,-4.39344 -11.8198,-12.78934c0,-8.45466 3.14592,-11.75652 5.88504,-13.69108c3.11202,-2.19446 6.90656,-2.89958 15.61208,-2.89958c10.42086,0 19.00886,2.96738 25.52218,8.81626c6.45682,5.80142 12.33734,16.37596 17.97152,32.3293c0.00452,0.01356 32.91012,95.26126 45.25198,131.11842c0.35256,1.02604 1.3221,4.62848 -1.05316,7.95746c-2.41368,3.38322 -7.345,5.09856 -14.65384,5.09856zM118.5257,110.74c0.0452,0 0.08814,0 0.1356,0.00452c0.93112,0.05424 1.73342,0.678 2.01818,1.56618l25.28262,78.91016c0.0904,0.30736 1.72664,5.39914 11.8537,5.39914c5.60254,0 9.50104,-1.13904 10.97456,-3.20468c1.14808,-1.60912 0.58308,-3.49848 0.45878,-3.86008c-12.34412,-35.8549 -45.24746,-131.09808 -45.24746,-131.09808c-5.29744,-14.9951 -10.92484,-25.24646 -16.72174,-30.45802c-5.65904,-5.08274 -13.2323,-7.65914 -22.50282,-7.65914c-8.46144,0 -11.09886,0.72998 -13.0063,2.07468c-1.2882,0.90852 -3.97082,2.8024 -3.97082,9.99598c0,6.52688 4.5878,8.26934 7.29754,8.26934h6.17432c9.0852,0 15.54654,5.42852 19.75466,16.5997l7.30658,19.46312c0.21244,0.56726 0.18758,1.19554 -0.06554,1.74472c-0.38194,0.82264 -38.33412,82.6482 -50.6353,110.1637c-0.08814,0.19436 -0.1921,0.41132 -0.3051,0.6441c-0.36838,0.76162 -0.82716,1.70856 -0.82716,2.4521c0,3.0962 4.08382,4.87256 11.20508,4.87256c11.18474,0 12.92268,-4.19456 13.49446,-5.57542c8.16538,-19.72302 35.00062,-78.39488 35.27182,-78.98474c0.36838,-0.80682 1.1752,-1.31984 2.05434,-1.31984z" fill="#1f212b"></path><path d="M77.96774,31.95414c-0.55144,0 -1.03734,-0.4068 -1.11644,-0.9718c-0.08814,-0.61698 0.34126,-1.18876 0.9605,-1.2769c0.50172,-0.07006 1.25656,-0.15142 2.35492,-0.2147c0.70964,-0.02486 1.15712,0.44296 1.19102,1.0622c0.03616,0.62376 -0.43844,1.15712 -1.06446,1.19328c-1.01022,0.05876 -1.70404,0.13108 -2.16508,0.19662c-0.05198,0.00678 -0.10848,0.0113 -0.16046,0.0113z" fill="#1f212b"></path><path d="M96.05,33.80734c-0.1582,0 -0.32318,-0.0339 -0.4746,-0.10396c-2.47244,-1.14582 -5.29518,-1.79896 -8.63094,-1.99332c-0.6215,-0.03616 -1.09836,-0.56952 -1.0622,-1.19328c0.03616,-0.62376 0.57404,-1.09836 1.19328,-1.0622c3.62504,0.21244 6.71672,0.93112 9.44906,2.19898c0.56726,0.26216 0.81134,0.93564 0.54918,1.50064c-0.18984,0.41132 -0.5989,0.65314 -1.02378,0.65314z" fill="#1f212b"></path><path d="M116.08038,67.8c-0.46782,0 -0.90626,-0.2938 -1.06898,-0.76162l-1.69048,-4.8929c-3.40582,-9.6389 -6.893,-17.02458 -10.36436,-21.9446c-0.35934,-0.51076 -0.2373,-1.21362 0.2712,-1.57522c0.50398,-0.35934 1.21588,-0.23956 1.57296,0.27346c3.5934,5.08726 7.17776,12.65826 10.65364,22.50056l1.69274,4.90194c0.2034,0.58986 -0.11074,1.2317 -0.7006,1.43736c-0.11752,0.04068 -0.24408,0.06102 -0.36612,0.06102z" fill="#1f212b"></path></g><path d="" fill="none"></path><path d="" fill="none"></path></g></g></svg>